<?xml version="1.0" encoding="utf-8"?>
<!-- Generator: Adobe Illustrator 25.4.1, SVG Export Plug-In . SVG Version: 6.00 Build 0)  -->
<svg version="1.1" xmlns="http://www.w3.org/2000/svg" xmlns:xlink="http://www.w3.org/1999/xlink" x="0px" y="0px"
	 viewBox="0 0 403 180.4" style="enable-background:new 0 0 403 180.4;" xml:space="preserve">
<style type="text/css">
	.st0{fill:url(#SVGID_1_);}
	.st1{fill:url(#SVGID_00000132075059418266752220000002462482409504316309_);}
	.st2{fill:url(#SVGID_00000082354149357313780230000014436524895502194082_);}
	.st3{fill:#4D6DBF;}
	.st4{font-family:'EuphemiaUCAS-Bold';}
	.st5{font-size:42px;}
</style>
<g id="BACKGROUND">
</g>
<g id="OBJECTS">
	<g>
		<linearGradient id="SVGID_1_" gradientUnits="userSpaceOnUse" x1="123.7912" y1="43.7274" x2="50.1611" y2="133.4376">
			<stop  offset="0" style="stop-color:#6156C0"/>
			<stop  offset="1" style="stop-color:#71C8CB"/>
		</linearGradient>
		<path class="st0" d="M147,63.7h-35.2V44.1c0-10.4-8.4-18.8-18.8-18.8H65.3c-1.1,0-2.1,0.6-2.6,1.4c-0.3,0.5-0.5,1.1-0.5,1.8v35.2
			H42.5c-10.3,0-18.8,8.4-18.8,18.8v27.8c0,1.8,1.4,3.2,3.2,3.2h35.2V133c0,10.4,8.4,18.8,18.8,18.8h27.8c1.8,0,3.2-1.4,3.2-3.2
			v-35.2h19.6c10.4,0,18.8-8.4,18.8-18.8V66.9C150.2,65.1,148.8,63.7,147,63.7z M83.9,107.1c-4.4,0-8-3.6-8-8c0-4.4,3.6-8,8-8
			c0.7,0,1.3,0.1,2,0.2c1.1,0.3,2.2,0,3-0.8c0.8-0.8,1.1-1.9,0.8-3c-0.2-0.6-0.2-1.3-0.2-2c0-4.4,3.6-8,8-8c4.4,0,8,3.6,8,8v21.6
			H83.9z M143.8,94.7c0,6.9-5.6,12.4-12.4,12.4h-19.6V85.5c0-7.9-6.4-14.4-14.4-14.4c-7.6,0-13.9,6-14.3,13.6
			c-7.6,0.4-13.6,6.7-13.6,14.3c0,3.2,1.1,6.2,2.9,8.6c0.8,1.1,1.8,2.1,2.9,2.9c2.4,1.8,5.4,2.9,8.6,2.9h21.6v32H80.9
			c-6.9,0-12.4-5.6-12.4-12.4v-22.7c0-0.8-0.3-1.5-0.7-2c-0.1-0.1-0.1-0.2-0.2-0.2c-0.6-0.6-1.4-0.9-2.2-0.9H30.1V82.5
			c0-6.8,5.6-12.4,12.4-12.4h22.7c1.8,0,3.2-1.4,3.2-3.2V31.7h24.6c6.8,0,12.4,5.6,12.4,12.4v22.8c0,1.8,1.4,3.2,3.2,3.2h35.2V94.7z
			"/>
		
			<linearGradient id="SVGID_00000078755226889031423390000007999059099392911000_" gradientUnits="userSpaceOnUse" x1="108.433" y1="112.6209" x2="108.7439" y2="131.4288">
			<stop  offset="0" style="stop-color:#000000"/>
			<stop  offset="1" style="stop-color:#000000;stop-opacity:0"/>
		</linearGradient>
		<polygon style="fill:url(#SVGID_00000078755226889031423390000007999059099392911000_);" points="105.5,113.5 111.8,113.5 
			111.8,119.3 105.5,139.5 		"/>
		
			<linearGradient id="SVGID_00000180341891644219386420000015795577905444776610_" gradientUnits="userSpaceOnUse" x1="108.9324" y1="111.7223" x2="108.6215" y2="97.422">
			<stop  offset="0" style="stop-color:#000000"/>
			<stop  offset="1" style="stop-color:#000000;stop-opacity:0"/>
		</linearGradient>
		<polygon style="fill:url(#SVGID_00000180341891644219386420000015795577905444776610_);" points="105.5,107.1 105.5,104.7 
			111.8,91.5 111.8,107.1 		"/>
	</g>
</g>
<g id="TEXTS">
	<g>
		<text transform="matrix(1 0 0 1 122.887 148.5677)" class="st3 st4 st5">MEDIC_CALC</text>
	</g>
</g>
</svg>
