<?xml version="1.0" encoding="utf-8"?>
<!-- Generator: Adobe Illustrator 24.2.0, SVG Export Plug-In . SVG Version: 6.00 Build 0)  -->
<svg version="1.1" id="Слой_1" xmlns="http://www.w3.org/2000/svg" xmlns:xlink="http://www.w3.org/1999/xlink" x="0px" y="0px"
	 viewBox="0 0 393 132" style="enable-background:new 0 0 393 132;" xml:space="preserve">
<style type="text/css">
	.st0{fill:#604394;}
	.st1{font-family:'Impact';}
	.st2{font-size:51px;}
	.st3{fill:url(#SVGID_1_);}
	.st4{fill:url(#SVGID_2_);}
	.st5{fill:url(#SVGID_3_);}
	.st6{fill:url(#SVGID_4_);}
	.st7{fill:url(#SVGID_5_);}
	.st8{fill:url(#SVGID_6_);}
	.st9{fill:url(#SVGID_7_);}
	.st10{fill:url(#SVGID_8_);}
</style>
<g>
	<g>
		<text transform="matrix(1 0 0 1 114.8526 90.0205)" class="st0 st1 st2">TIME_INVEST</text>
	</g>
</g>
<g>
	<g>
		<g>
			
				<linearGradient id="SVGID_1_" gradientUnits="userSpaceOnUse" x1="89.1345" y1="168.4897" x2="34.994" y2="114.3492" gradientTransform="matrix(0.8745 0.485 -0.485 0.8745 56.738 -88.7687)">
				<stop  offset="0" style="stop-color:#300EE2"/>
				<stop  offset="0.6574" style="stop-color:#FF8CF8"/>
				<stop  offset="0.9985" style="stop-color:#FF3EFF"/>
			</linearGradient>
			<path class="st3" d="M84.6,110.2c1.8-1.1,3.4-2.2,5-3.4c-22.3,9.8-49.2,1.8-62.1-19.5C14.7,66,20.1,38.8,39.4,23.8
				c-1.8,0.8-3.7,1.7-5.4,2.8C10.7,40.4,3.2,70.4,17.1,93.5C31.1,116.5,61.3,124,84.6,110.2z"/>
			<linearGradient id="SVGID_2_" gradientUnits="userSpaceOnUse" x1="53.5251" y1="86.9748" x2="42.7124" y2="22.7887">
				<stop  offset="0" style="stop-color:#000000"/>
				<stop  offset="1" style="stop-color:#7864E1"/>
			</linearGradient>
			<path class="st4" d="M29.7,96.2c14.4,16.5,37.7,21,56.9,12.7c1.1-0.7,2.1-1.4,3.1-2.2c-22.3,9.8-49.2,1.8-62.1-19.5
				C14.7,66,20.1,38.8,39.4,23.8c-1.7,1.1-3.3,2.3-4.9,3.7C14.1,45.1,11.9,76,29.7,96.2z"/>
			
				<linearGradient id="SVGID_3_" gradientUnits="userSpaceOnUse" x1="99.8359" y1="82.6132" x2="99.8359" y2="188.9119" gradientTransform="matrix(0.8745 0.485 -0.485 0.8745 56.738 -88.7687)">
				<stop  offset="0" style="stop-color:#300EE2"/>
				<stop  offset="0.6574" style="stop-color:#FF8CF8"/>
				<stop  offset="0.9985" style="stop-color:#FF3EFF"/>
			</linearGradient>
			<path class="st5" d="M83.1,25.8c-1.8-1-3.7-1.8-5.5-2.6c19.7,14.3,26.2,41.3,14,63c-12.2,21.7-38.7,30.6-61.3,21.6
				c1.6,1.2,3.3,2.3,5.1,3.3c23.7,13,53.7,4.5,66.9-19C115.4,68.5,106.8,38.8,83.1,25.8z"/>
			<linearGradient id="SVGID_4_" gradientUnits="userSpaceOnUse" x1="105.9538" y1="34.8643" x2="49.2441" y2="96.8088">
				<stop  offset="0" style="stop-color:#000000"/>
				<stop  offset="1" style="stop-color:#7864E1"/>
			</linearGradient>
			<path class="st6" d="M98.4,79.9c7.2-20.6-0.5-42.8-17.4-55.1c-1.1-0.6-2.3-1.1-3.5-1.5c19.7,14.3,26.2,41.3,14,63
				c-12.2,21.7-38.7,30.6-61.3,21.6c1.8,0.9,3.7,1.7,5.6,2.3C61.6,118.8,89.6,105.3,98.4,79.9z"/>
			
				<linearGradient id="SVGID_5_" gradientUnits="userSpaceOnUse" x1="51.9373" y1="141.2795" x2="99.7774" y2="93.4394" gradientTransform="matrix(0.8745 0.485 -0.485 0.8745 56.738 -88.7687)">
				<stop  offset="0" style="stop-color:#300EE2"/>
				<stop  offset="0.6574" style="stop-color:#FF8CF8"/>
				<stop  offset="0.9985" style="stop-color:#FF3EFF"/>
			</linearGradient>
			<path class="st7" d="M39.4,23.8c-8.2,6.4-13.9,15-16.7,24.4c8.8-9.9,21.6-16.3,36-16.5c25-0.4,46.1,17.9,49.5,41.8
				c0.2-2,0.3-4,0.3-6c-0.5-26.9-22.9-48.3-50-47.9c-7.8,0.1-15.1,2.1-21.6,5.4C37.7,24.6,38.5,24.2,39.4,23.8z"/>
			<linearGradient id="SVGID_6_" gradientUnits="userSpaceOnUse" x1="53.2455" y1="41.4292" x2="96.1666" y2="70.7832">
				<stop  offset="0" style="stop-color:#000000"/>
				<stop  offset="1" style="stop-color:#7864E1"/>
			</linearGradient>
			<path class="st8" d="M49.7,29c-4.4,0.8-8.5,2.3-12.4,4.1c0,0,0,0,0,0s-0.3,0.2-0.9,0.4c-0.1,0-0.2,0.1-0.3,0.1
				c-0.4,0.2-0.8,0.5-1.4,0.8c-1.3,0.7-2.5,1.5-3.6,2.3c-1.7,1.2-3.7,2.6-5.8,4.3c-1.1,2.3-2,4.7-2.8,7.1c8.3-9.3,20-15.4,33.3-16.4
				c0,0,0,0,0,0c0.9-0.1,1.8-0.1,2.7-0.1c25-0.4,46.1,17.9,49.5,41.8c-0.1-2-0.4-4-0.8-6C102.2,41.2,76.4,23.9,49.7,29z"/>
		</g>
		<g>
			
				<linearGradient id="SVGID_7_" gradientUnits="userSpaceOnUse" x1="237.8291" y1="135.1528" x2="220.938" y2="153.6031" gradientTransform="matrix(0.7071 0.7071 -0.7071 0.7071 15.3038 -207.6867)">
				<stop  offset="1.542470e-03" style="stop-color:#FF3EFF"/>
				<stop  offset="0.3426" style="stop-color:#FF8CF8"/>
				<stop  offset="1" style="stop-color:#300EE2"/>
			</linearGradient>
			<path class="st9" d="M57.8,69.8L57.8,69.8c-0.8-0.8-0.8-2.1,0-2.9l23.4-23.2c0.8-0.8,2.1-0.8,2.9,0l0,0c0.8,0.8,0.8,2.1,0,2.9
				L60.7,69.8C59.9,70.6,58.6,70.6,57.8,69.8z"/>
			
				<linearGradient id="SVGID_8_" gradientUnits="userSpaceOnUse" x1="24.1436" y1="-144.4125" x2="11.9805" y2="-131.1267" gradientTransform="matrix(0.7071 -0.7071 0.7071 0.7071 135.8237 167.5375)">
				<stop  offset="0" style="stop-color:#300EE2"/>
				<stop  offset="0.6574" style="stop-color:#FF8CF8"/>
				<stop  offset="0.9985" style="stop-color:#FF3EFF"/>
			</linearGradient>
			<path class="st10" d="M60.7,69.9L60.7,69.9c-0.8,0.8-2.1,0.8-2.9,0L41.9,54.1c-0.8-0.8-0.8-2.1,0-2.9l0,0c0.8-0.8,2.1-0.8,2.9,0
				L60.7,67C61.5,67.8,61.5,69.1,60.7,69.9z"/>
		</g>
	</g>
</g>
</svg>
